<svg width="240" height="240" viewBox="0 0 240 240" fill="none" xmlns="http://www.w3.org/2000/svg">
<path d="M240 120C240 186.274 186.274 240 120 240C53.7258 240 0 186.274 0 120C0 53.7258 53.7258 0 120 0C186.274 0 240 53.7258 240 120Z" fill="#3C3737"/>
<rect x="45" y="70" width="123" height="27" rx="10" fill="#195592"/>
<rect x="45" y="37" width="123" height="27" rx="10" fill="#195592"/>
<path d="M61.0568 88V79.2727H62.1136V87.0625H66.1705V88H61.0568ZM70.4148 88.1364C69.7841 88.1364 69.2401 87.9972 68.7827 87.7188C68.3281 87.4375 67.9773 87.0455 67.7301 86.5426C67.4858 86.0369 67.3636 85.4489 67.3636 84.7784C67.3636 84.108 67.4858 83.517 67.7301 83.0057C67.9773 82.4915 68.321 82.0909 68.7614 81.804C69.2045 81.5142 69.7216 81.3693 70.3125 81.3693C70.6534 81.3693 70.9901 81.4261 71.3224 81.5398C71.6548 81.6534 71.9574 81.8381 72.2301 82.0938C72.5028 82.3466 72.7202 82.6818 72.8821 83.0994C73.044 83.517 73.125 84.0312 73.125 84.642V85.0682H68.0795V84.1989H72.1023C72.1023 83.8295 72.0284 83.5 71.8807 83.2102C71.7358 82.9205 71.5284 82.6918 71.2585 82.5241C70.9915 82.3565 70.6761 82.2727 70.3125 82.2727C69.9119 82.2727 69.5653 82.3722 69.2727 82.571C68.983 82.767 68.7599 83.0227 68.6037 83.3381C68.4474 83.6534 68.3693 83.9915 68.3693 84.3523V84.9318C68.3693 85.4261 68.4545 85.8452 68.625 86.1889C68.7983 86.5298 69.0384 86.7898 69.3452 86.9688C69.652 87.1449 70.0085 87.233 70.4148 87.233C70.679 87.233 70.9176 87.196 71.1307 87.1222C71.3466 87.0455 71.5327 86.9318 71.6889 86.7812C71.8452 86.6278 71.9659 86.4375 72.0511 86.2102L73.0227 86.483C72.9205 86.8125 72.7486 87.1023 72.5071 87.3523C72.2656 87.5994 71.9673 87.7926 71.6122 87.9318C71.2571 88.0682 70.858 88.1364 70.4148 88.1364ZM75.5923 85.6136L75.5753 84.3693H75.7798L78.6435 81.4545H79.8878L76.8366 84.5398H76.7514L75.5923 85.6136ZM74.6548 88V79.2727H75.6605V88H74.6548ZM78.8139 88L76.2571 84.7614L76.973 84.0625L80.0923 88H78.8139ZM84.5401 88V87.233L87.4208 84.0795C87.7589 83.7102 88.0373 83.3892 88.256 83.1165C88.4748 82.8409 88.6367 82.5824 88.7418 82.3409C88.8498 82.0966 88.9038 81.8409 88.9038 81.5739C88.9038 81.267 88.8299 81.0014 88.6822 80.777C88.5373 80.5526 88.3384 80.3793 88.0856 80.2571C87.8327 80.1349 87.5487 80.0739 87.2333 80.0739C86.8981 80.0739 86.6055 80.1435 86.3555 80.2827C86.1083 80.419 85.9165 80.6108 85.7802 80.858C85.6467 81.1051 85.5799 81.3949 85.5799 81.7273H84.5742C84.5742 81.2159 84.6921 80.767 84.9279 80.3807C85.1637 79.9943 85.4847 79.6932 85.891 79.4773C86.3001 79.2614 86.7589 79.1534 87.2674 79.1534C87.7788 79.1534 88.2319 79.2614 88.6268 79.4773C89.0217 79.6932 89.3313 79.9844 89.5558 80.3509C89.7802 80.7173 89.8924 81.125 89.8924 81.5739C89.8924 81.8949 89.8342 82.2088 89.7177 82.5156C89.604 82.8196 89.4052 83.1591 89.1211 83.5341C88.8398 83.9062 88.4492 84.3608 87.9492 84.8977L85.989 86.9943V87.0625H90.0458V88H84.5401Z" fill="white"/>
<rect x="45" y="103" width="123" height="27" rx="10" fill="#195592"/>
<rect x="176" y="69" width="28" height="27" rx="10" fill="#922319"/>
<path d="M191.552 85L189.872 82.28L188.224 85H186.304L188.928 80.84L186.48 76.888H188.464L189.968 79.304L191.424 76.888H193.344L190.896 80.76L193.536 85H191.552Z" fill="#595151"/>
<rect x="176" y="104" width="28" height="27" rx="10" fill="#922319"/>
<path d="M191.552 120L189.872 117.28L188.224 120H186.304L188.928 115.84L186.48 111.888H188.464L189.968 114.304L191.424 111.888H193.344L190.896 115.76L193.536 120H191.552Z" fill="#595151"/>
<rect x="176" y="136" width="28" height="27" rx="10" fill="#922319"/>
<path d="M191.552 152L189.872 149.28L188.224 152H186.304L188.928 147.84L186.48 143.888H188.464L189.968 146.304L191.424 143.888H193.344L190.896 147.76L193.536 152H191.552Z" fill="#595151"/>
<rect x="176" y="37" width="28" height="27" rx="10" fill="#922319"/>
<path d="M191.552 53L189.872 50.28L188.224 53H186.304L188.928 48.84L186.48 44.888H188.464L189.968 47.304L191.424 44.888H193.344L190.896 48.76L193.536 53H191.552Z" fill="#595151"/>
<path d="M61.0568 120V111.273H62.1136V119.062H66.1705V120H61.0568ZM70.4148 120.136C69.7841 120.136 69.2401 119.997 68.7827 119.719C68.3281 119.438 67.9773 119.045 67.7301 118.543C67.4858 118.037 67.3636 117.449 67.3636 116.778C67.3636 116.108 67.4858 115.517 67.7301 115.006C67.9773 114.491 68.321 114.091 68.7614 113.804C69.2045 113.514 69.7216 113.369 70.3125 113.369C70.6534 113.369 70.9901 113.426 71.3224 113.54C71.6548 113.653 71.9574 113.838 72.2301 114.094C72.5028 114.347 72.7202 114.682 72.8821 115.099C73.044 115.517 73.125 116.031 73.125 116.642V117.068H68.0795V116.199H72.1023C72.1023 115.83 72.0284 115.5 71.8807 115.21C71.7358 114.92 71.5284 114.692 71.2585 114.524C70.9915 114.357 70.6761 114.273 70.3125 114.273C69.9119 114.273 69.5653 114.372 69.2727 114.571C68.983 114.767 68.7599 115.023 68.6037 115.338C68.4474 115.653 68.3693 115.991 68.3693 116.352V116.932C68.3693 117.426 68.4545 117.845 68.625 118.189C68.7983 118.53 69.0384 118.79 69.3452 118.969C69.652 119.145 70.0085 119.233 70.4148 119.233C70.679 119.233 70.9176 119.196 71.1307 119.122C71.3466 119.045 71.5327 118.932 71.6889 118.781C71.8452 118.628 71.9659 118.437 72.0511 118.21L73.0227 118.483C72.9205 118.812 72.7486 119.102 72.5071 119.352C72.2656 119.599 71.9673 119.793 71.6122 119.932C71.2571 120.068 70.858 120.136 70.4148 120.136ZM75.5923 117.614L75.5753 116.369H75.7798L78.6435 113.455H79.8878L76.8366 116.54H76.7514L75.5923 117.614ZM74.6548 120V111.273H75.6605V120H74.6548ZM78.8139 120L76.2571 116.761L76.973 116.062L80.0923 120H78.8139ZM87.489 120.119C86.9265 120.119 86.4251 120.023 85.9847 119.83C85.5472 119.636 85.1992 119.368 84.9407 119.024C84.685 118.678 84.5458 118.276 84.5231 117.818H85.5969C85.6197 118.099 85.7163 118.342 85.8867 118.547C86.0572 118.749 86.2802 118.905 86.5558 119.016C86.8313 119.126 87.1367 119.182 87.4719 119.182C87.8469 119.182 88.1793 119.116 88.4691 118.986C88.7589 118.855 88.9862 118.673 89.1509 118.44C89.3157 118.207 89.3981 117.938 89.3981 117.631C89.3981 117.31 89.3185 117.027 89.1594 116.783C89.0004 116.536 88.7674 116.342 88.4606 116.203C88.1538 116.064 87.7788 115.994 87.3356 115.994H86.6367V115.057H87.3356C87.6822 115.057 87.9862 114.994 88.2475 114.869C88.5117 114.744 88.7177 114.568 88.8654 114.341C89.016 114.114 89.0913 113.847 89.0913 113.54C89.0913 113.244 89.0259 112.987 88.8952 112.768C88.7646 112.55 88.5799 112.379 88.3413 112.257C88.1055 112.135 87.8271 112.074 87.506 112.074C87.2049 112.074 86.9208 112.129 86.6538 112.24C86.3896 112.348 86.1737 112.506 86.006 112.713C85.8384 112.918 85.7475 113.165 85.7333 113.455H84.7106C84.7276 112.997 84.8654 112.597 85.1239 112.253C85.3825 111.906 85.7205 111.636 86.1381 111.443C86.5586 111.25 87.0202 111.153 87.5231 111.153C88.0629 111.153 88.5259 111.263 88.9123 111.482C89.2987 111.697 89.5955 111.983 89.8029 112.338C90.0103 112.693 90.114 113.077 90.114 113.489C90.114 113.98 89.9847 114.399 89.7262 114.746C89.4705 115.092 89.1225 115.332 88.6822 115.466V115.534C89.2333 115.625 89.6637 115.859 89.9734 116.237C90.283 116.612 90.4379 117.077 90.4379 117.631C90.4379 118.105 90.3086 118.531 90.0501 118.909C89.7944 119.284 89.445 119.58 89.0018 119.795C88.5586 120.011 88.0543 120.119 87.489 120.119Z" fill="white"/>
<path d="M61.0568 153V144.273H62.1136V152.062H66.1705V153H61.0568ZM70.4148 153.136C69.7841 153.136 69.2401 152.997 68.7827 152.719C68.3281 152.438 67.9773 152.045 67.7301 151.543C67.4858 151.037 67.3636 150.449 67.3636 149.778C67.3636 149.108 67.4858 148.517 67.7301 148.006C67.9773 147.491 68.321 147.091 68.7614 146.804C69.2045 146.514 69.7216 146.369 70.3125 146.369C70.6534 146.369 70.9901 146.426 71.3224 146.54C71.6548 146.653 71.9574 146.838 72.2301 147.094C72.5028 147.347 72.7202 147.682 72.8821 148.099C73.044 148.517 73.125 149.031 73.125 149.642V150.068H68.0795V149.199H72.1023C72.1023 148.83 72.0284 148.5 71.8807 148.21C71.7358 147.92 71.5284 147.692 71.2585 147.524C70.9915 147.357 70.6761 147.273 70.3125 147.273C69.9119 147.273 69.5653 147.372 69.2727 147.571C68.983 147.767 68.7599 148.023 68.6037 148.338C68.4474 148.653 68.3693 148.991 68.3693 149.352V149.932C68.3693 150.426 68.4545 150.845 68.625 151.189C68.7983 151.53 69.0384 151.79 69.3452 151.969C69.652 152.145 70.0085 152.233 70.4148 152.233C70.679 152.233 70.9176 152.196 71.1307 152.122C71.3466 152.045 71.5327 151.932 71.6889 151.781C71.8452 151.628 71.9659 151.437 72.0511 151.21L73.0227 151.483C72.9205 151.812 72.7486 152.102 72.5071 152.352C72.2656 152.599 71.9673 152.793 71.6122 152.932C71.2571 153.068 70.858 153.136 70.4148 153.136ZM75.5923 150.614L75.5753 149.369H75.7798L78.6435 146.455H79.8878L76.8366 149.54H76.7514L75.5923 150.614ZM74.6548 153V144.273H75.6605V153H74.6548ZM78.8139 153L76.2571 149.761L76.973 149.062L80.0923 153H78.8139ZM84.3356 151.21V150.341L88.1708 144.273H88.8015V145.619H88.3754L85.4776 150.205V150.273H90.6424V151.21H84.3356ZM88.4435 153V150.946V150.541V144.273H89.4492V153H88.4435Z" fill="white"/>
<rect x="45" y="136" width="123" height="27" rx="10" fill="#195592"/>
<path d="M61.0568 153V144.273H62.1136V152.062H66.1705V153H61.0568ZM70.4148 153.136C69.7841 153.136 69.2401 152.997 68.7827 152.719C68.3281 152.438 67.9773 152.045 67.7301 151.543C67.4858 151.037 67.3636 150.449 67.3636 149.778C67.3636 149.108 67.4858 148.517 67.7301 148.006C67.9773 147.491 68.321 147.091 68.7614 146.804C69.2045 146.514 69.7216 146.369 70.3125 146.369C70.6534 146.369 70.9901 146.426 71.3224 146.54C71.6548 146.653 71.9574 146.838 72.2301 147.094C72.5028 147.347 72.7202 147.682 72.8821 148.099C73.044 148.517 73.125 149.031 73.125 149.642V150.068H68.0795V149.199H72.1023C72.1023 148.83 72.0284 148.5 71.8807 148.21C71.7358 147.92 71.5284 147.692 71.2585 147.524C70.9915 147.357 70.6761 147.273 70.3125 147.273C69.9119 147.273 69.5653 147.372 69.2727 147.571C68.983 147.767 68.7599 148.023 68.6037 148.338C68.4474 148.653 68.3693 148.991 68.3693 149.352V149.932C68.3693 150.426 68.4545 150.845 68.625 151.189C68.7983 151.53 69.0384 151.79 69.3452 151.969C69.652 152.145 70.0085 152.233 70.4148 152.233C70.679 152.233 70.9176 152.196 71.1307 152.122C71.3466 152.045 71.5327 151.932 71.6889 151.781C71.8452 151.628 71.9659 151.437 72.0511 151.21L73.0227 151.483C72.9205 151.812 72.7486 152.102 72.5071 152.352C72.2656 152.599 71.9673 152.793 71.6122 152.932C71.2571 153.068 70.858 153.136 70.4148 153.136ZM75.5923 150.614L75.5753 149.369H75.7798L78.6435 146.455H79.8878L76.8366 149.54H76.7514L75.5923 150.614ZM74.6548 153V144.273H75.6605V153H74.6548ZM78.8139 153L76.2571 149.761L76.973 149.062L80.0923 153H78.8139ZM84.3356 151.21V150.341L88.1708 144.273H88.8015V145.619H88.3754L85.4776 150.205V150.273H90.6424V151.21H84.3356ZM88.4435 153V150.946V150.541V144.273H89.4492V153H88.4435Z" fill="white"/>
<rect x="45" y="37" width="123" height="27" rx="10" fill="#195592"/>
<rect x="45" y="136" width="123" height="27" rx="10" fill="#195592"/>
<path d="M61.0568 153V144.273H62.1136V152.062H66.1705V153H61.0568ZM70.4148 153.136C69.7841 153.136 69.2401 152.997 68.7827 152.719C68.3281 152.438 67.9773 152.045 67.7301 151.543C67.4858 151.037 67.3636 150.449 67.3636 149.778C67.3636 149.108 67.4858 148.517 67.7301 148.006C67.9773 147.491 68.321 147.091 68.7614 146.804C69.2045 146.514 69.7216 146.369 70.3125 146.369C70.6534 146.369 70.9901 146.426 71.3224 146.54C71.6548 146.653 71.9574 146.838 72.2301 147.094C72.5028 147.347 72.7202 147.682 72.8821 148.099C73.044 148.517 73.125 149.031 73.125 149.642V150.068H68.0795V149.199H72.1023C72.1023 148.83 72.0284 148.5 71.8807 148.21C71.7358 147.92 71.5284 147.692 71.2585 147.524C70.9915 147.357 70.6761 147.273 70.3125 147.273C69.9119 147.273 69.5653 147.372 69.2727 147.571C68.983 147.767 68.7599 148.023 68.6037 148.338C68.4474 148.653 68.3693 148.991 68.3693 149.352V149.932C68.3693 150.426 68.4545 150.845 68.625 151.189C68.7983 151.53 69.0384 151.79 69.3452 151.969C69.652 152.145 70.0085 152.233 70.4148 152.233C70.679 152.233 70.9176 152.196 71.1307 152.122C71.3466 152.045 71.5327 151.932 71.6889 151.781C71.8452 151.628 71.9659 151.437 72.0511 151.21L73.0227 151.483C72.9205 151.812 72.7486 152.102 72.5071 152.352C72.2656 152.599 71.9673 152.793 71.6122 152.932C71.2571 153.068 70.858 153.136 70.4148 153.136ZM75.5923 150.614L75.5753 149.369H75.7798L78.6435 146.455H79.8878L76.8366 149.54H76.7514L75.5923 150.614ZM74.6548 153V144.273H75.6605V153H74.6548ZM78.8139 153L76.2571 149.761L76.973 149.062L80.0923 153H78.8139ZM84.3356 151.21V150.341L88.1708 144.273H88.8015V145.619H88.3754L85.4776 150.205V150.273H90.6424V151.21H84.3356ZM88.4435 153V150.946V150.541V144.273H89.4492V153H88.4435Z" fill="white"/>
<path d="M61.0568 55V46.2727H62.1136V54.0625H66.1705V55H61.0568ZM70.4148 55.1364C69.7841 55.1364 69.2401 54.9972 68.7827 54.7188C68.3281 54.4375 67.9773 54.0455 67.7301 53.5426C67.4858 53.0369 67.3636 52.4489 67.3636 51.7784C67.3636 51.108 67.4858 50.517 67.7301 50.0057C67.9773 49.4915 68.321 49.0909 68.7614 48.804C69.2045 48.5142 69.7216 48.3693 70.3125 48.3693C70.6534 48.3693 70.9901 48.4261 71.3224 48.5398C71.6548 48.6534 71.9574 48.8381 72.2301 49.0938C72.5028 49.3466 72.7202 49.6818 72.8821 50.0994C73.044 50.517 73.125 51.0312 73.125 51.642V52.0682H68.0795V51.1989H72.1023C72.1023 50.8295 72.0284 50.5 71.8807 50.2102C71.7358 49.9205 71.5284 49.6918 71.2585 49.5241C70.9915 49.3565 70.6761 49.2727 70.3125 49.2727C69.9119 49.2727 69.5653 49.3722 69.2727 49.571C68.983 49.767 68.7599 50.0227 68.6037 50.3381C68.4474 50.6534 68.3693 50.9915 68.3693 51.3523V51.9318C68.3693 52.4261 68.4545 52.8452 68.625 53.1889C68.7983 53.5298 69.0384 53.7898 69.3452 53.9688C69.652 54.1449 70.0085 54.233 70.4148 54.233C70.679 54.233 70.9176 54.196 71.1307 54.1222C71.3466 54.0455 71.5327 53.9318 71.6889 53.7812C71.8452 53.6278 71.9659 53.4375 72.0511 53.2102L73.0227 53.483C72.9205 53.8125 72.7486 54.1023 72.5071 54.3523C72.2656 54.5994 71.9673 54.7926 71.6122 54.9318C71.2571 55.0682 70.858 55.1364 70.4148 55.1364ZM75.5923 52.6136L75.5753 51.3693H75.7798L78.6435 48.4545H79.8878L76.8366 51.5398H76.7514L75.5923 52.6136ZM74.6548 55V46.2727H75.6605V55H74.6548ZM78.8139 55L76.2571 51.7614L76.973 51.0625L80.0923 55H78.8139ZM87.6083 46.2727V55H86.5515V47.3807H86.5004L84.3697 48.7955V47.7216L86.5515 46.2727H87.6083Z" fill="white"/>
<rect x="132" y="178" width="36" height="36" rx="10" fill="#5F81A3"/>
<path d="M147.591 206.011V187.261H150.773V206.011H147.591ZM139.807 198.227V195.045H158.557V198.227H139.807Z" fill="white"/>
<rect x="132" y="178" width="36" height="36" rx="10" fill="#5F81A3"/>
<path d="M147.591 206.011V187.261H150.773V206.011H147.591ZM139.807 198.227V195.045H158.557V198.227H139.807Z" fill="white"/>
<rect x="70" y="178" width="36" height="36" rx="10" fill="#195592"/>
<path d="M85.5909 206.011V187.261H88.7727V206.011H85.5909ZM77.8068 198.227V195.045H96.5568V198.227H77.8068Z" fill="white"/>
<rect x="70" y="178" width="36" height="36" rx="10" fill="#195592"/>
<path d="M85.3409 207L75.1591 196.818L85.3409 186.636L87.0909 188.364L79.8864 195.568H98.5455V198.068H79.8864L87.0909 205.25L85.3409 207Z" fill="white"/>
</svg>
