<svg viewBox="0 0 400 400" xmlns="http://www.w3.org/2000/svg">
  <!-- Short vertical separators between each number -->
  <g stroke="black" stroke-width="1">
    <line x1="200" y1="12" x2="200" y2="28" transform="rotate(5.625 200 200)"/>
    <line x1="200" y1="12" x2="200" y2="28" transform="rotate(16.875 200 200)"/>
    <line x1="200" y1="12" x2="200" y2="28" transform="rotate(28.125 200 200)"/>
    <line x1="200" y1="12" x2="200" y2="28" transform="rotate(39.375 200 200)"/>
    <line x1="200" y1="12" x2="200" y2="28" transform="rotate(50.625 200 200)"/>
    <line x1="200" y1="12" x2="200" y2="28" transform="rotate(61.875 200 200)"/>
    <line x1="200" y1="12" x2="200" y2="28" transform="rotate(73.125 200 200)"/>
    <line x1="200" y1="12" x2="200" y2="28" transform="rotate(84.375 200 200)"/>
    <line x1="200" y1="12" x2="200" y2="28" transform="rotate(95.625 200 200)"/>
    <line x1="200" y1="12" x2="200" y2="28" transform="rotate(106.875 200 200)"/>
    <line x1="200" y1="12" x2="200" y2="28" transform="rotate(118.125 200 200)"/>
    <line x1="200" y1="12" x2="200" y2="28" transform="rotate(129.375 200 200)"/>
    <line x1="200" y1="12" x2="200" y2="28" transform="rotate(140.625 200 200)"/>
    <line x1="200" y1="12" x2="200" y2="28" transform="rotate(151.875 200 200)"/>
    <line x1="200" y1="12" x2="200" y2="28" transform="rotate(163.125 200 200)"/>
    <line x1="200" y1="12" x2="200" y2="28" transform="rotate(174.375 200 200)"/>
    <line x1="200" y1="12" x2="200" y2="28" transform="rotate(185.625 200 200)"/>
    <line x1="200" y1="12" x2="200" y2="28" transform="rotate(196.875 200 200)"/>
    <line x1="200" y1="12" x2="200" y2="28" transform="rotate(208.125 200 200)"/>
    <line x1="200" y1="12" x2="200" y2="28" transform="rotate(219.375 200 200)"/>
    <line x1="200" y1="12" x2="200" y2="28" transform="rotate(230.625 200 200)"/>
    <line x1="200" y1="12" x2="200" y2="28" transform="rotate(241.875 200 200)"/>
    <line x1="200" y1="12" x2="200" y2="28" transform="rotate(253.125 200 200)"/>
    <line x1="200" y1="12" x2="200" y2="28" transform="rotate(264.375 200 200)"/>
    <line x1="200" y1="12" x2="200" y2="28" transform="rotate(275.625 200 200)"/>
    <line x1="200" y1="12" x2="200" y2="28" transform="rotate(286.875 200 200)"/>
    <line x1="200" y1="12" x2="200" y2="28" transform="rotate(298.125 200 200)"/>
    <line x1="200" y1="12" x2="200" y2="28" transform="rotate(309.375 200 200)"/>
    <line x1="200" y1="12" x2="200" y2="28" transform="rotate(320.625 200 200)"/>
    <line x1="200" y1="12" x2="200" y2="28" transform="rotate(331.875 200 200)"/>
    <line x1="200" y1="12" x2="200" y2="28" transform="rotate(343.125 200 200)"/>
    <line x1="200" y1="12" x2="200" y2="28" transform="rotate(354.375 200 200)"/>
  </g>

  <!-- Numbers 0-31 arranged around the circle, rotated to face outward -->
  <g font-family="Arial, sans-serif" font-size="16" text-anchor="middle" fill="black">
    <text transform="rotate(180 200 200)">
      <tspan x="200" y="372">0</tspan>
    </text>
    <text transform="rotate(191.25 200 200)">
      <tspan x="200" y="372">1</tspan>
    </text>
    <text transform="rotate(202.5 200 200)">
      <tspan x="200" y="372">2</tspan>
    </text>
    <text transform="rotate(213.75 200 200)">
      <tspan x="200" y="372">3</tspan>
    </text>
    <text transform="rotate(225 200 200)">
      <tspan x="200" y="372">4</tspan>
    </text>
    <text transform="rotate(236.25 200 200)">
      <tspan x="200" y="372">5</tspan>
    </text>
    <text transform="rotate(247.5 200 200)">
      <tspan x="200" y="372">6</tspan>
    </text>
    <text transform="rotate(258.75 200 200)">
      <tspan x="200" y="372">7</tspan>
    </text>
    <text transform="rotate(270 200 200)">
      <tspan x="200" y="372">8</tspan>
    </text>
    <text transform="rotate(281.25 200 200)">
      <tspan x="200" y="372">9</tspan>
    </text>
    <text transform="rotate(292.5 200 200)">
      <tspan x="200" y="372">10</tspan>
    </text>
    <text transform="rotate(303.75 200 200)">
      <tspan x="200" y="372">11</tspan>
    </text>
    <text transform="rotate(315 200 200)">
      <tspan x="200" y="372">12</tspan>
    </text>
    <text transform="rotate(326.25 200 200)">
      <tspan x="200" y="372">13</tspan>
    </text>
    <text transform="rotate(337.5 200 200)">
      <tspan x="200" y="372">14</tspan>
    </text>
    <text transform="rotate(348.75 200 200)">
      <tspan x="200" y="372">15</tspan>
    </text>
    <text transform="rotate(0 200 200)">
      <tspan x="200" y="372">16</tspan>
    </text>
    <text transform="rotate(11.25 200 200)">
      <tspan x="200" y="372">17</tspan>
    </text>
    <text transform="rotate(22.5 200 200)">
      <tspan x="200" y="372">18</tspan>
    </text>
    <text transform="rotate(33.75 200 200)">
      <tspan x="200" y="372">19</tspan>
    </text>
    <text transform="rotate(45 200 200)">
      <tspan x="200" y="372">20</tspan>
    </text>
    <text transform="rotate(56.25 200 200)">
      <tspan x="200" y="372">21</tspan>
    </text>
    <text transform="rotate(67.5 200 200)">
      <tspan x="200" y="372">22</tspan>
    </text>
    <text transform="rotate(78.75 200 200)">
      <tspan x="200" y="372">23</tspan>
    </text>
    <text transform="rotate(90 200 200)">
      <tspan x="200" y="372">24</tspan>
    </text>
    <text transform="rotate(101.25 200 200)">
      <tspan x="200" y="372">25</tspan>
    </text>
    <text transform="rotate(112.5 200 200)">
      <tspan x="200" y="372">26</tspan>
    </text>
    <text transform="rotate(123.75 200 200)">
      <tspan x="200" y="372">27</tspan>
    </text>
    <text transform="rotate(135 200 200)">
      <tspan x="200" y="372">28</tspan>
    </text>
    <text transform="rotate(146.25 200 200)">
      <tspan x="200" y="372">29</tspan>
    </text>
    <text transform="rotate(157.5 200 200)">
      <tspan x="200" y="372">30</tspan>
    </text>
    <text transform="rotate(168.75 200 200)">
      <tspan x="200" y="372">31</tspan>
    </text>
  </g>
</svg>